<svg xmlns="http://www.w3.org/2000/svg" viewBox="0 0 100 100">
  <path d="M50 32c-2-11-11-17-21-17 2 11 9 18 21 19Z" fill="#9bcf94" stroke="#3a7c36" stroke-width="3" stroke-linejoin="round"/>
  <path d="M50 32c2-13 13-20 24-19-2 13-11 21-24 21Z" fill="#6eb565" stroke="#3a7c36" stroke-width="3" stroke-linejoin="round"/>
  <path d="M50 34c16 0 27 12 27 28 0 15-12 24-27 24S23 77 23 62c0-16 11-28 27-28Z" fill="#4c9a45" stroke="#30622e" stroke-width="3" stroke-linejoin="round"/>
  <ellipse cx="34" cy="66" rx="5.5" ry="4" fill="#f8c98f" opacity="0.75"/>
  <ellipse cx="66" cy="66" rx="5.5" ry="4" fill="#f8c98f" opacity="0.75"/>
  <circle cx="41" cy="58" r="4" fill="#2a4e29"/>
  <circle cx="59" cy="58" r="4" fill="#2a4e29"/>
  <path d="M41 68c3.5 3.5 14.5 3.5 18 0" fill="none" stroke="#2a4e29" stroke-width="3" stroke-linecap="round"/>
</svg>
